<?xml version="1.0" standalone="no"?>
<!DOCTYPE svg PUBLIC "-//W3C//DTD SVG 20010904//EN"
 "http://www.w3.org/TR/2001/REC-SVG-20010904/DTD/svg10.dtd">
<svg version="1.0" xmlns="http://www.w3.org/2000/svg"
 width="260.000000pt" height="260.000000pt" viewBox="0 0 260.000000 260.000000"
 preserveAspectRatio="xMidYMid meet">
<metadata>
Created by potrace 1.11, written by Peter Selinger 2001-2013
</metadata>
<g transform="translate(0.000000,260.000000) scale(0.100000,-0.100000)"
fill="#000000" stroke="none">
<path d="M381 2584 c-172 -46 -310 -186 -356 -359 -23 -89 -23 -1761 0 -1850
46 -176 184 -314 360 -360 89 -23 1751 -23 1840 0 176 46 314 184 360 360 23
89 23 1761 0 1850 -46 176 -184 314 -360 360 -86 22 -1761 22 -1844 -1z m1213
-701 c130 -182 236 -334 236 -337 0 -3 -39 -6 -87 -6 l-88 0 -155 220 c-85
120 -158 219 -162 220 -4 0 -78 -99 -164 -220 l-158 -220 -88 0 c-72 0 -87 3
-81 13 4 8 116 165 248 350 180 252 243 333 251 324 6 -7 118 -161 248 -344z
m-329 -453 c45 -10 75 -41 75 -76 l0 -24 -275 0 -275 0 0 55 0 55 218 0 c119
0 235 -5 257 -10z m675 -45 l0 -55 -270 0 c-257 0 -270 1 -270 19 0 28 38 70
73 80 18 5 130 10 250 10 l217 1 0 -55z m-999 -137 l0 -43 22 43 21 42 184 0
c191 0 190 0 155 -41 -11 -14 -11 -18 1 -29 22 -18 29 -71 16 -119 -18 -67
-37 -71 -315 -71 l-235 0 0 130 0 130 75 0 75 0 1 -42z m921 32 c55 -16 78
-51 78 -119 0 -36 -6 -65 -16 -80 -32 -45 -67 -51 -304 -51 l-220 0 0 55 0 55
192 2 c174 3 193 5 196 21 3 16 -9 17 -143 17 -157 0 -199 9 -229 51 -9 13
-16 31 -16 41 0 17 16 18 213 18 116 0 229 -5 249 -10z m-1202 -226 c0 -3 -36
-56 -80 -117 l-80 -112 325 -3 325 -2 0 -85 0 -85 -469 0 -469 0 136 205 137
204 88 1 c48 0 87 -3 87 -6z m1655 -185 c72 -106 134 -198 138 -205 7 -12 -66
-14 -448 -14 l-455 0 0 85 0 85 310 0 c171 0 310 3 310 6 0 3 -33 52 -73 107
-40 56 -76 108 -81 115 -5 9 13 12 81 12 l89 0 129 -191z m-1015 -154 l0 -65
-35 0 -35 0 0 65 0 65 35 0 35 0 0 -65z m130 0 l0 -65 -35 0 -35 0 0 65 0 65
35 0 35 0 0 -65z"/>
<path d="M940 1160 c0 -20 5 -20 128 -18 105 3 127 6 127 18 0 12 -22 15 -127
18 -123 2 -128 2 -128 -18z"/>
</g>
</svg>
